<svg width="100.000000" height="63.000000" viewBox="0 0 100 63" fill="none" xmlns="http://www.w3.org/2000/svg" xmlns:xlink="http://www.w3.org/1999/xlink">
	<desc>
			Created with Pixso.
	</desc>
	<defs>
		<clipPath id="clip226_880">
			<rect id="Group 58 3" width="80.000008" height="55.789474" transform="translate(9.473633 6.315430)" fill="white" fill-opacity="0"/>
		</clipPath>
	</defs>
	<rect id="Group 58 3" width="80.000008" height="55.789474" transform="translate(9.473633 6.315430)" fill="#FFFFFF" fill-opacity="0"/>
	<g clip-path="url(#clip226_880)">
		<path id="Vector" d="M10.01 28L15.45 27.98L20.78 44.78L25.8 27.95L31.41 27.93L36.58 44.72L41.77 27.89L47.21 27.87L39.54 51.44L33.63 51.46L28.63 35.6L23.74 51.49L17.83 51.51L10.01 28ZM65.37 51.35L45.97 51.41L45.9 27.88L65.29 27.81L65.31 32.86L51.19 32.9L51.2 37.27L63.67 37.23L63.69 41.94L51.22 41.98L51.23 46.35L65.35 46.3L65.37 51.35ZM78.9 51.3L65.05 51.35L64.97 27.81L78.16 27.77C80.82 27.76 82.75 28.27 83.94 29.29C85.15 30.3 85.76 31.91 85.77 34.13C85.78 36.44 85.1 38.1 83.74 39.11C85.55 40.07 86.46 41.94 86.46 44.72C86.47 47.01 85.87 48.68 84.67 49.73C83.48 50.77 81.56 51.29 78.9 51.3ZM70.31 46.29L78.88 46.26C79.81 46.25 80.48 46.07 80.89 45.71C81.31 45.33 81.52 44.75 81.51 43.96C81.51 43.18 81.3 42.61 80.88 42.25C80.46 41.89 79.79 41.72 78.87 41.72L70.29 41.75L70.31 46.29ZM70.28 37.04L78.03 37.01C79 37.01 79.7 36.84 80.14 36.5C80.6 36.16 80.83 35.63 80.83 34.89C80.82 34.17 80.61 33.64 80.19 33.31C79.77 32.97 79.1 32.81 78.18 32.81L70.26 32.84L70.28 37.04Z" fill="#666BFC" fill-opacity="1.000000" fill-rule="nonzero"/>
		<path id="Vector" d="M9.47 22.11L11.47 22.1C11.59 22.54 11.86 22.86 12.28 23.07C12.69 23.27 13.3 23.37 14.1 23.36C15.57 23.36 16.3 23.02 16.3 22.34C16.3 22.01 16.1 21.75 15.71 21.55C15.33 21.35 14.64 21.17 13.67 21C12.12 20.72 11.05 20.37 10.46 19.94C9.89 19.5 9.6 18.85 9.59 17.98C9.59 16.95 9.92 16.2 10.59 15.72C11.25 15.23 12.28 14.99 13.68 14.98C15.04 14.98 16.06 15.22 16.75 15.72C17.44 16.2 17.86 17.01 18.01 18.13L15.97 18.14C15.87 17.69 15.63 17.37 15.24 17.17C14.86 16.96 14.3 16.86 13.56 16.86C12.18 16.86 11.49 17.2 11.5 17.85C11.5 18.15 11.67 18.39 12.03 18.57C12.39 18.75 13.04 18.93 13.99 19.11C15.6 19.41 16.7 19.78 17.31 20.21C17.91 20.65 18.21 21.31 18.22 22.19C18.22 23.22 17.87 23.99 17.17 24.5C16.47 25 15.38 25.25 13.92 25.26C12.52 25.26 11.46 25.02 10.75 24.52C10.05 24.03 9.62 23.22 9.47 22.11ZM22.97 16.95L22.97 15.06L32.48 15.03L32.48 16.92L28.71 16.94L28.73 25.08L26.78 25.08L26.75 16.94L22.97 16.95ZM37.99 15.01L39.95 15L39.97 20.51C39.97 21.47 40.19 22.18 40.63 22.61C41.07 23.05 41.76 23.27 42.71 23.27C43.67 23.26 44.36 23.04 44.78 22.6C45.21 22.16 45.43 21.45 45.43 20.49L45.41 14.99L47.37 14.98L47.38 20.64C47.39 22.22 47.02 23.37 46.29 24.08C45.55 24.79 44.36 25.15 42.72 25.16C41.08 25.16 39.89 24.81 39.13 24.11C38.39 23.4 38.02 22.25 38.01 20.67L37.99 15.01ZM53.49 24.99L53.46 14.96L57.6 14.94C59.34 14.94 60.6 15.33 61.39 16.12C62.19 16.91 62.59 18.18 62.6 19.94C62.6 21.7 62.21 22.98 61.42 23.77C60.63 24.57 59.37 24.97 57.63 24.98L53.49 24.99ZM55.44 23.09L57.55 23.09C58.65 23.08 59.44 22.84 59.93 22.35C60.41 21.85 60.66 21.05 60.65 19.95C60.65 18.85 60.4 18.06 59.91 17.57C59.42 17.08 58.63 16.83 57.53 16.84L55.42 16.84L55.44 23.09ZM68.51 24.94L68.48 14.91L70.43 14.9L70.47 24.93L68.51 24.94ZM81.31 14.73C83.05 14.73 84.31 15.13 85.1 15.94C85.9 16.75 86.3 18.05 86.31 19.86C86.32 21.66 85.92 22.97 85.13 23.79C84.35 24.61 83.08 25.02 81.34 25.02C79.59 25.03 78.32 24.63 77.53 23.82C76.75 23 76.35 21.69 76.34 19.9C76.34 18.09 76.72 16.78 77.51 15.96C78.29 15.15 79.56 14.74 81.31 14.73ZM79 17.41C78.52 17.92 78.28 18.75 78.29 19.89C78.29 21.03 78.53 21.85 79.02 22.37C79.5 22.88 80.27 23.14 81.34 23.13C82.4 23.13 83.17 22.87 83.65 22.35C84.13 21.83 84.37 21 84.37 19.87C84.36 18.73 84.12 17.9 83.64 17.39C83.15 16.87 82.38 16.61 81.32 16.61C80.25 16.61 79.48 16.88 79 17.41Z" fill="#666BFC" fill-opacity="1.000000" fill-rule="nonzero"/>
	</g>
	<path id="Star" d="M11.66 59.31L13.65 60L14.32 61.99L15.01 60L17 59.33L15.01 58.64L14.34 56.65L13.65 58.64L11.66 59.31Z" fill="#666BFC" fill-opacity="1.000000" fill-rule="evenodd"/>
	<path id="Star" d="M0.01 51.65L3.73 52.93L4.99 56.66L6.28 52.94L10.01 51.67L6.28 50.39L5.02 46.66L3.74 50.38L0.01 51.65Z" fill="#666BFC" fill-opacity="1.000000" fill-rule="evenodd"/>
	<path id="Star" d="M87.64 2.66L85.65 1.98L84.97 0L84.29 1.98L82.31 2.66L84.29 3.34L84.97 5.33L85.65 3.34L87.64 2.66Z" fill="#666BFC" fill-opacity="1.000000" fill-rule="evenodd"/>
	<path id="Star" d="M100 9.38L96.27 8.1L95 4.38L93.72 8.1L90 9.38L93.72 10.65L95 14.37L96.27 10.65L100 9.38Z" fill="#666BFC" fill-opacity="1.000000" fill-rule="evenodd"/>
</svg>
