<svg width="25.000000" height="15.000000" viewBox="0 0 25 15" fill="none" xmlns="http://www.w3.org/2000/svg" xmlns:xlink="http://www.w3.org/1999/xlink">
	<desc>
			Created with Pixso.
	</desc>
	<defs/>
	<path id="Vector" d="M24.43 1.03C24.15 1.92 23.77 2.69 23.29 3.4L23.31 3.37C22.85 4.15 22.29 5.06 21.64 6.08C21.09 6.9 20.79 7.32 20.76 7.34C20.62 7.53 20.52 7.75 20.48 7.99L20.48 8C20.51 8.22 20.61 8.42 20.76 8.56L21.18 9.03C23.41 11.34 24.66 12.93 24.94 13.81C24.97 13.9 25 14.02 25 14.13C25 14.34 24.93 14.52 24.82 14.68L24.82 14.67C24.64 14.87 24.38 14.98 24.1 14.98C24.07 14.98 24.04 14.98 24.01 14.98L24.01 14.98L21.27 14.98C21.27 14.98 21.27 14.98 21.26 14.98C20.91 14.98 20.59 14.85 20.34 14.65L20.34 14.65C19.97 14.34 19.64 14.01 19.35 13.66L19.34 13.64C18.86 13.1 18.43 12.64 18.06 12.26C16.83 11.08 15.91 10.48 15.32 10.48C15.3 10.48 15.28 10.48 15.25 10.48C15.08 10.48 14.92 10.53 14.79 10.62L14.79 10.62C14.68 10.76 14.61 10.94 14.61 11.12C14.61 11.16 14.62 11.2 14.62 11.24L14.62 11.23C14.59 11.56 14.58 11.94 14.58 12.33C14.58 12.46 14.58 12.58 14.58 12.71L14.58 12.69L14.58 13.9C14.59 13.95 14.6 14.01 14.6 14.07C14.6 14.32 14.48 14.55 14.3 14.7L14.3 14.7C13.9 14.89 13.43 15 12.93 15C12.83 15 12.72 14.99 12.62 14.98L12.63 14.98C10.99 14.95 9.47 14.47 8.18 13.65L8.21 13.67C6.64 12.71 5.34 11.45 4.34 9.97L4.31 9.92C3.37 8.66 2.49 7.24 1.74 5.73L1.67 5.57C1.23 4.73 0.77 3.69 0.38 2.63L0.32 2.43C0.16 1.96 0.04 1.4 0 0.82L0 0.8C0 0.27 0.3 0 0.92 0L3.66 0C3.69 0 3.72 0 3.75 0C4.01 0 4.25 0.09 4.43 0.24L4.43 0.23C4.64 0.46 4.79 0.75 4.87 1.06L4.87 1.07C5.38 2.51 5.91 3.72 6.53 4.87L6.46 4.73C6.96 5.75 7.51 6.62 8.15 7.43L8.12 7.4C8.68 8.09 9.11 8.43 9.42 8.43C9.43 8.43 9.45 8.43 9.46 8.43C9.61 8.43 9.75 8.35 9.82 8.22L9.82 8.22C9.9 8.02 9.94 7.79 9.94 7.55C9.94 7.5 9.94 7.44 9.94 7.39L9.94 7.4L9.94 3.33C9.91 2.85 9.8 2.4 9.6 2L9.61 2.02C9.48 1.74 9.33 1.5 9.14 1.29L9.15 1.29C8.97 1.12 8.86 0.89 8.82 0.64L8.82 0.63C8.82 0.45 8.9 0.29 9.03 0.19L9.03 0.19C9.16 0.07 9.33 0 9.51 0L9.52 0L13.84 0C13.86 0 13.89 0 13.91 0C14.12 0 14.3 0.09 14.42 0.23L14.42 0.24C14.53 0.43 14.59 0.67 14.59 0.92C14.59 0.96 14.59 1 14.59 1.04L14.59 1.03L14.59 6.46C14.58 6.49 14.58 6.52 14.58 6.55C14.58 6.74 14.64 6.92 14.73 7.08L14.73 7.07C14.8 7.19 14.93 7.26 15.07 7.26L15.07 7.26C15.26 7.25 15.42 7.19 15.56 7.09L15.56 7.09C15.84 6.9 16.09 6.67 16.3 6.42L16.3 6.41C16.94 5.69 17.52 4.9 18.03 4.05L18.07 3.98C18.43 3.38 18.81 2.64 19.17 1.88L19.23 1.73L19.7 0.79C19.86 0.33 20.29 0 20.8 0C20.82 0 20.84 0 20.86 0L20.86 0L23.6 0C24.34 0 24.62 0.34 24.43 1.03L24.43 1.03Z" fill="#FFFFFF" fill-opacity="1.000000" fill-rule="nonzero"/>
</svg>
