<svg width="40" height="28" viewBox="0 0 40 28" fill="none" xmlns="http://www.w3.org/2000/svg">
<path d="M0.262695 10.5796L2.91695 10.5706L5.51777 18.7615L7.96811 10.5532L10.7028 10.5439L13.2232 18.7351L15.7539 10.5266L18.4082 10.5175L14.6656 22.0102L11.7862 22.02L9.34772 14.2876L6.96025 22.0365L4.0808 22.0464L0.262695 10.5796ZM27.2646 21.967L17.8058 21.9994L17.768 10.5197L27.2268 10.4874L27.2349 12.9473L20.3499 12.9708L20.3569 15.1028L26.4376 15.082L26.4451 17.3779L20.3645 17.3987L20.3715 19.5307L27.2565 19.5071L27.2646 21.967ZM33.8658 21.9444L27.1095 21.9676L27.0717 10.4879L33.5063 10.4659C34.8039 10.4614 35.7431 10.7097 36.3239 11.2106C36.9153 11.7006 37.2128 12.4868 37.2164 13.5691C37.2201 14.6952 36.8903 15.5054 36.227 15.9996C37.108 16.4668 37.5507 17.3782 37.5551 18.7339C37.5588 19.849 37.2666 20.6646 36.6785 21.1804C36.101 21.6853 35.1634 21.94 33.8658 21.9444ZM29.6752 19.4988L33.8577 19.4845C34.3081 19.483 34.6349 19.3944 34.8381 19.2188C35.0412 19.0322 35.1422 18.7476 35.1409 18.3649C35.1397 17.9823 35.0369 17.7039 34.8325 17.5296C34.6282 17.3554 34.3008 17.269 33.8504 17.2706L29.668 17.2849L29.6752 19.4988ZM29.6604 14.9889L33.4407 14.976C33.9125 14.9744 34.2555 14.8912 34.4694 14.7265C34.6941 14.5617 34.8058 14.299 34.8046 13.9382C34.8035 13.5883 34.7007 13.3317 34.4964 13.1684C34.2921 13.0051 33.9648 12.9243 33.5144 12.9258L29.6536 12.939L29.6604 14.9889Z" fill="#666BFC"/>
<path d="M0 7.70395L0.975218 7.70058C1.03461 7.91478 1.16606 8.0728 1.36956 8.17464C1.57305 8.27183 1.86893 8.31974 2.25721 8.31843C2.97508 8.31592 3.33348 8.14922 3.3324 7.81825C3.33189 7.65978 3.23666 7.53191 3.04671 7.43468C2.85677 7.33745 2.52463 7.2477 2.05029 7.16544C1.29134 7.02823 0.769298 6.85524 0.484177 6.64647C0.203557 6.43301 0.0625561 6.11419 0.0611769 5.69001C0.0595555 5.19125 0.220902 4.82477 0.545216 4.59058C0.869517 4.35172 1.37254 4.23111 2.05429 4.22875C2.71798 4.22645 3.21727 4.34592 3.55216 4.58715C3.88703 4.82372 4.09147 5.2169 4.16553 5.76668L3.16998 5.77014C3.12412 5.55121 3.00622 5.39313 2.81627 5.2959C2.63083 5.19399 2.35751 5.14366 1.99632 5.14492C1.3236 5.14724 0.987759 5.30923 0.988807 5.63086C0.989277 5.77536 1.07544 5.8916 1.24729 5.97957C1.42366 6.06752 1.74225 6.15499 2.20306 6.24195C2.98913 6.38839 3.52925 6.56832 3.82341 6.7817C4.11757 6.99512 4.26537 7.31626 4.26676 7.74508C4.26839 8.24851 4.09805 8.62435 3.75572 8.87257C3.41338 9.11618 2.88553 9.2392 2.17217 9.24166C1.48591 9.24405 0.970816 9.12461 0.626899 8.88342C0.282977 8.64224 0.0740114 8.24908 0 7.70395ZM6.58654 5.19194L6.58351 4.269L11.2226 4.25292L11.2256 5.17586L9.38349 5.18225L9.3964 9.15369L8.44153 9.15702L8.42863 5.18555L6.58654 5.19194ZM13.9133 4.24359L14.8682 4.24028L14.8769 6.9252C14.8784 7.39601 14.9856 7.73825 15.1985 7.95192C15.4114 8.16563 15.7504 8.27166 16.2154 8.27006C16.6805 8.26841 17.0165 8.16004 17.2235 7.94493C17.435 7.72974 17.54 7.3868 17.5384 6.91599L17.5297 4.23106L18.4846 4.22775L18.4936 6.98957C18.4961 7.75869 18.3173 8.31872 17.9572 8.66955C17.5972 9.01574 17.0176 9.19021 16.2184 9.19297C15.4193 9.19576 14.8363 9.02532 14.4695 8.68164C14.1072 8.33327 13.9247 7.77457 13.9223 7.00545L13.9133 4.24359ZM21.4727 9.11186L21.4568 4.21745L23.475 4.21046C24.3238 4.20752 24.9407 4.39883 25.3257 4.78439C25.7153 5.16994 25.9114 5.79155 25.9142 6.64922C25.917 7.5069 25.7249 8.12989 25.3378 8.51811C24.9554 8.90633 24.3397 9.10191 23.4909 9.10487L21.4727 9.11186ZM22.4246 8.18558L23.454 8.18204C23.9868 8.18019 24.3724 8.05997 24.6109 7.82142C24.8494 7.57822 24.9678 7.18856 24.9661 6.65251C24.9643 6.11647 24.8434 5.72999 24.6033 5.49309C24.3633 5.25153 23.9769 5.13168 23.4441 5.13352L22.4147 5.13709L22.4246 8.18558ZM28.7969 9.08648L28.781 4.19207L29.7359 4.18876L29.7518 9.08315L28.7969 9.08648ZM35.0408 4.10745C35.8896 4.10451 36.5065 4.30048 36.8916 4.69537C37.2811 5.09023 37.4773 5.72816 37.4802 6.60916C37.4831 7.48547 37.291 8.12475 36.904 8.527C36.5215 8.92451 35.9059 9.12477 35.0571 9.12769C34.2038 9.13066 33.5846 8.93471 33.1995 8.53983C32.8145 8.14025 32.6205 7.50233 32.6177 6.62599C32.6148 5.74501 32.8046 5.10574 33.1871 4.7082C33.5695 4.31066 34.1875 4.11041 35.0408 4.10745ZM33.914 5.41188C33.6801 5.66441 33.564 6.06802 33.5658 6.62274C33.5676 7.17741 33.6863 7.58023 33.9219 7.83112C34.1575 8.08201 34.5349 8.20655 35.0541 8.20475C35.5733 8.20298 35.9499 8.0758 36.1838 7.82327C36.4178 7.57073 36.5339 7.16713 36.5321 6.61245C36.5303 6.05774 36.4115 5.65494 36.176 5.40404C35.9404 5.14849 35.563 5.02161 35.0437 5.0234C34.5245 5.0252 34.1479 5.1547 33.914 5.41188Z" fill="#666BFC"/>
</svg>
